<?xml version="1.0" standalone="no"?>
<!DOCTYPE svg PUBLIC "-//W3C//DTD SVG 20010904//EN"
 "http://www.w3.org/TR/2001/REC-SVG-20010904/DTD/svg10.dtd">
<svg version="1.0" xmlns="http://www.w3.org/2000/svg"
 width="700.000000pt" height="394.000000pt" viewBox="0 0 700.000000 394.000000"
 preserveAspectRatio="xMidYMid meet">

<g transform="translate(0.000000,394.000000) scale(0.100000,-0.100000)"
fill="#000000" stroke="none">
<path d="M2341 3678 l-1 -138 140 0 140 0 -2 48 -1 47 -4 -42 -4 -43 -130 0
-129 0 0 100 0 100 138 2 137 2 -140 6 -140 6 138 2 c130 2 137 3 137 22 0 11
-4 20 -10 20 -5 0 -7 -7 -4 -15 5 -13 -12 -15 -124 -15 -116 0 -131 2 -135 18
-3 9 -5 -45 -6 -120z"/>
<path d="M5520 3791 c-15 -4 -26 -15 -28 -28 -4 -30 -58 -42 -76 -18 -14 20
-38 12 -71 -25 -15 -16 -17 -25 -8 -38 14 -23 -20 -74 -45 -66 -15 5 -15 4 1
-6 14 -9 21 -6 42 17 13 15 22 34 20 41 -3 6 -8 18 -11 26 -3 8 7 22 24 35 29
20 30 20 46 2 15 -16 22 -17 52 -8 26 8 34 16 34 34 0 18 5 23 25 23 14 0 25
5 25 10 0 6 -1 10 -2 9 -2 -1 -14 -4 -28 -8z"/>
<path d="M5577 3766 c4 -17 17 -29 42 -40 34 -13 37 -13 51 5 16 20 16 20 45
-2 17 -13 32 -24 34 -26 2 -1 -3 -11 -12 -20 -14 -17 -13 -21 11 -50 21 -25
31 -30 42 -23 13 8 13 10 -1 10 -9 0 -24 9 -35 21 -15 16 -16 24 -6 39 16 27
17 25 -23 56 -34 26 -36 26 -55 9 -26 -23 -68 -13 -80 20 -12 32 -19 32 -13 1z"/>
<path d="M2608 3700 c-3 -16 -1 -30 4 -30 4 0 8 14 8 30 0 17 -2 30 -4 30 -2
0 -6 -13 -8 -30z"/>
<path d="M2471 3655 c1 -23 3 -25 6 -8 4 19 12 22 61 25 l57 3 -63 5 -62 5 1
-30z"/>
<path d="M2605 3650 c-3 -5 -1 -10 4 -10 6 0 11 5 11 10 0 6 -2 10 -4 10 -3 0
-8 -4 -11 -10z"/>
<path d="M1024 3613 c-8 -13 -18 -14 -66 -4 -31 7 -74 9 -95 5 -58 -10 -139
-51 -167 -85 l-25 -30 -42 21 c-22 12 -42 20 -44 18 -4 -5 -45 -87 -45 -91 0
-2 17 -12 38 -21 l39 -18 -1 -76 c-1 -65 3 -86 27 -134 16 -32 47 -73 69 -92
29 -25 39 -41 36 -54 -4 -15 5 -24 40 -41 24 -12 46 -21 47 -19 8 9 46 90 43
93 -2 1 -21 12 -44 23 -37 19 -42 19 -57 5 -14 -14 -19 -11 -60 30 -122 121
-94 321 56 407 84 48 225 50 220 4 -1 -14 11 -27 42 -44 24 -13 46 -22 48 -20
3 3 14 24 25 47 24 46 21 51 -39 76 -32 13 -37 13 -45 0z m47 -33 c15 -9 17
-15 9 -30 -12 -22 -18 -24 -39 -11 -8 5 -11 16 -6 30 7 24 9 25 36 11z m-442
-89 c15 -10 6 -51 -12 -51 -25 0 -39 18 -32 39 7 22 21 26 44 12z m200 -410
c15 -10 6 -51 -12 -51 -28 1 -39 17 -28 39 13 23 19 25 40 12z"/>
<path d="M1984 3615 c-10 -24 0 -32 18 -14 14 15 14 18 2 23 -8 3 -17 -1 -20
-9z"/>
<path d="M2200 3617 c14 -6 28 -16 32 -22 5 -6 8 -3 8 6 0 18 -20 29 -48 28
-12 0 -9 -4 8 -12z"/>
<path d="M2080 3593 c0 -12 6 -24 13 -26 9 -4 9 -7 0 -14 -7 -5 -13 -48 -15
-116 l-3 -107 35 0 35 0 -3 144 -3 144 -30 -2 c-23 -1 -29 -5 -29 -23z"/>
<path d="M5250 3585 c-13 -41 -8 -65 15 -65 25 0 20 -67 -5 -75 -21 -7 -24
-27 -9 -60 7 -15 8 -13 3 12 -4 25 -1 34 15 43 29 15 29 72 -1 92 -19 13 -20
18 -10 48 7 18 10 35 8 37 -2 3 -9 -12 -16 -32z"/>
<path d="M5826 3585 c8 -20 12 -41 8 -48 -5 -8 -4 -9 4 -2 13 11 -4 85 -19 85
-4 0 -1 -16 7 -35z"/>
<path d="M5485 3598 c-39 -22 -66 -62 -64 -95 0 -10 5 -4 10 14 24 82 127 110
193 53 21 -19 36 -43 41 -66 3 -20 8 -34 11 -32 12 13 -13 74 -43 104 -29 29
-40 34 -81 34 -26 0 -56 -6 -67 -12z"/>
<path d="M3367 3583 c-4 -3 -7 -111 -7 -239 0 -202 2 -233 16 -238 9 -3 130
-6 270 -6 l254 0 0 25 0 25 -237 2 -238 3 0 145 0 145 297 3 297 2 3 -82 c3
-82 3 -83 31 -86 l28 -3 -3 153 -3 153 -351 3 c-193 1 -353 -1 -357 -5z m348
-68 c0 -19 -8 -20 -139 -23 -141 -3 -164 2 -153 33 6 13 26 15 149 13 135 -3
143 -4 143 -23z m193 3 c-3 -25 -43 -37 -60 -20 -19 19 0 42 32 42 27 0 31 -3
28 -22z m110 0 c-3 -25 -43 -37 -60 -20 -19 19 0 42 32 42 27 0 31 -3 28 -22z"/>
<path d="M5797 3523 c-2 -5 -1 -19 4 -33 7 -23 7 -23 8 8 1 31 -3 40 -12 25z"/>
<path d="M5420 3462 c0 -24 30 -71 53 -82 l22 -11 -22 18 c-12 10 -29 34 -37
53 -8 19 -15 29 -16 22z"/>
<path d="M5648 3427 c-9 -19 -31 -41 -50 -50 -18 -9 -25 -17 -16 -17 22 0 88
63 88 84 0 23 -4 20 -22 -17z"/>
<path d="M5796 3449 c3 -5 11 -9 19 -9 22 0 26 -15 14 -50 -10 -28 -15 -31
-38 -27 -23 5 -30 0 -46 -29 -14 -26 -16 -37 -7 -46 18 -18 15 -24 -19 -49
-30 -21 -33 -21 -45 -5 -9 14 -20 16 -43 11 -17 -4 -33 -11 -36 -15 -3 -5 8
-4 25 2 25 8 34 7 50 -7 21 -19 42 -12 74 24 16 17 17 23 6 36 -21 25 5 65 42
65 24 0 32 6 43 34 18 42 12 62 -20 69 -14 2 -22 0 -19 -4z"/>
<path d="M3734 3354 c-8 -20 -13 -38 -11 -40 2 -2 11 14 20 36 19 50 12 53 -9
4z"/>
<path d="M5033 3373 c-7 -2 -13 -13 -13 -23 0 -21 -23 -32 -54 -24 -29 7 -54
-19 -37 -40 15 -18 3 -46 -25 -57 -24 -8 -35 -49 -14 -49 6 0 16 -12 22 -26
10 -20 9 -27 -2 -34 -20 -12 3 -62 25 -54 21 9 47 -15 40 -37 -8 -23 31 -47
48 -30 16 16 54 13 61 -4 9 -24 45 -18 55 9 11 27 38 41 56 26 17 -14 53 26
38 41 -16 16 5 60 26 57 11 -2 17 6 19 25 2 15 -2 27 -8 27 -19 0 -29 43 -14
61 12 13 11 18 -2 37 -8 12 -19 20 -24 17 -18 -11 -51 15 -45 35 7 24 -31 48
-48 31 -16 -16 -57 -14 -57 4 0 15 -22 19 -47 8z m104 -135 c29 -32 34 -53 22
-88 -13 -36 -36 -50 -83 -50 -68 0 -101 86 -51 135 32 33 84 34 112 3z"/>
<path d="M5302 3353 c24 -6 48 -47 37 -64 -15 -25 -10 -37 26 -59 34 -21 37
-21 54 -6 22 20 68 12 74 -12 3 -12 5 -11 6 4 1 30 -64 44 -83 18 -10 -13 -17
-14 -33 -6 -36 20 -46 38 -31 61 11 17 9 24 -12 46 -13 14 -31 24 -39 24 -14
-1 -13 -2 1 -6z"/>
<path d="M5538 3353 c7 -3 16 -2 19 1 4 3 -2 6 -13 5 -11 0 -14 -3 -6 -6z"/>
<path d="M3603 3320 c-24 -10 -43 -21 -43 -24 0 -6 56 -36 67 -36 4 0 -5 8
-20 19 l-28 18 43 21 c54 26 38 28 -19 2z"/>
<path d="M3830 3318 l45 -21 -43 -19 c-24 -11 -42 -22 -39 -24 5 -5 97 35 97
42 0 6 -89 44 -98 43 -4 0 13 -10 38 -21z"/>
<path d="M3706 3285 c-9 -26 -7 -32 5 -12 6 10 9 21 6 23 -2 3 -7 -2 -11 -11z"/>
<path d="M4027 3201 c2 -10 -3 -25 -12 -35 -18 -18 -35 -21 -35 -6 0 6 -5 10
-10 10 -6 0 -3 -11 6 -25 10 -15 26 -25 40 -25 12 0 26 -5 29 -11 8 -13 -24
-39 -41 -32 -13 5 -44 -23 -44 -40 0 -8 4 -7 12 1 16 16 23 15 43 -4 12 -12
13 -19 4 -30 -7 -8 -7 -14 -1 -14 14 0 28 21 36 53 8 33 31 35 55 5 16 -19 20
-20 34 -7 14 13 13 17 -10 41 -28 30 -24 48 12 48 13 0 31 7 39 16 21 20 21
41 1 24 -21 -18 -61 16 -44 37 6 7 7 13 2 13 -16 0 -33 -23 -33 -46 0 -22 -24
-39 -41 -28 -5 3 -9 15 -9 28 0 21 -17 46 -31 46 -4 0 -5 -8 -2 -19z"/>
<path d="M5560 3180 c-13 -8 -13 -10 2 -10 9 0 20 5 23 10 8 13 -5 13 -25 0z"/>
<path d="M1150 1908 l0 -1243 392 0 393 0 3 -158 3 -157 -164 0 c-151 0 -165
-2 -182 -20 -17 -19 -31 -20 -259 -20 l-242 0 -49 -37 c-53 -40 -323 -251
-340 -265 -5 -4 1246 -8 2780 -8 l2790 0 -155 155 -155 155 -822 0 c-453 0
-823 3 -823 6 0 3 14 22 31 43 35 45 69 144 69 206 0 23 -7 62 -16 86 -8 24
-24 82 -35 129 -10 47 -21 95 -24 107 l-5 23 750 0 750 0 0 768 c0 710 -1 770
-18 801 -9 19 -30 44 -45 55 -28 21 -33 21 -1230 24 -661 2 -1222 0 -1246 -3
-59 -9 -108 -56 -117 -114 -5 -29 -11 -41 -24 -41 -9 0 -25 -9 -36 -21 l-19
-21 -6 24 c-4 12 -7 191 -8 396 l-1 372 -970 0 -970 0 0 -1242z m1240 1121
c-7 -13 -19 -19 -33 -17 -16 2 -22 -2 -23 -17 -1 -11 -2 -26 -3 -32 -1 -7 -8
-13 -16 -13 -8 0 -15 -9 -15 -20 0 -11 5 -20 11 -20 7 0 9 -11 5 -30 -5 -26
-2 -32 19 -40 14 -5 25 -16 25 -24 0 -21 18 -30 34 -17 9 7 18 6 34 -4 19 -14
23 -13 41 6 11 12 25 18 31 14 17 -10 39 13 33 35 -3 12 1 22 11 26 18 7 22
44 5 44 -7 0 -9 11 -5 30 5 26 2 32 -19 40 -14 5 -25 16 -25 24 0 20 -19 31
-32 18 -12 -12 -38 -5 -38 9 0 12 331 9 347 -3 7 -5 14 -5 18 2 3 6 44 10 96
10 78 0 89 -2 89 -17 3 -382 -2 -1536 -6 -1547 -3 -9 -13 -16 -22 -16 -25 0
-104 -50 -147 -94 -63 -63 -145 -126 -165 -126 -26 0 -35 -19 -16 -33 14 -11
14 -16 -4 -55 -11 -24 -29 -46 -39 -49 -28 -7 -34 -30 -9 -36 24 -7 15 -27
-13 -27 -26 0 -24 -26 4 -35 22 -6 21 -7 -5 -17 -32 -11 -35 -23 -12 -36 15
-8 15 -17 3 -83 -7 -41 -12 -77 -11 -80 3 -16 -185 -21 -715 -18 l-573 3 0
1133 0 1133 575 0 576 0 -11 -21z m82 -76 c10 -9 18 -25 18 -36 0 -54 -76 -78
-105 -33 -37 56 36 115 87 69z m3258 -1218 l0 -705 -704 0 -703 0 -18 83 c-21
96 -59 226 -75 256 -6 12 -25 28 -43 37 -53 28 -228 104 -285 125 -79 28 -154
74 -177 109 -11 16 -23 30 -28 30 -4 0 -7 -26 -5 -57 2 -63 -22 -130 -67 -189
-14 -18 -25 -46 -25 -62 0 -29 -61 -112 -83 -112 -24 0 -77 64 -77 92 0 18
-15 47 -41 80 -69 88 -93 144 -90 215 2 70 -37 203 -69 238 -38 41 -67 184
-36 178 5 -1 22 -37 37 -80 34 -95 53 -113 124 -113 56 0 78 13 90 50 9 29 32
24 50 -10 15 -29 18 -30 83 -30 40 0 75 5 84 13 30 23 62 117 94 272 11 55 12
83 3 130 -13 72 -23 92 -63 127 l-31 27 1028 1 1027 0 0 -705z m-2049 493 c17
-30 42 -127 41 -158 0 -14 -5 -37 -11 -52 -10 -26 -14 -28 -73 -28 -60 1 -62
1 -38 15 14 8 37 14 52 15 15 0 30 5 33 10 11 17 -67 11 -112 -9 -23 -11 -51
-29 -62 -40 -27 -27 -43 -26 -89 3 -50 32 -106 49 -147 44 -23 -3 -36 1 -40
10 -11 29 -5 128 10 148 13 20 19 20 72 11 71 -12 201 4 265 33 57 26 84 25
99 -2z m-331 -233 l35 -13 -67 -1 c-54 -1 -68 2 -68 14 0 19 51 19 100 0z
m314 -21 c20 -8 21 -57 2 -73 -19 -16 -123 -16 -141 -1 -8 7 -15 23 -15 36 0
19 6 24 43 28 56 8 92 13 94 15 1 0 8 -2 17 -5z m-227 -30 c3 -8 1 -26 -5 -40
-10 -21 -18 -24 -71 -24 -63 0 -75 8 -86 53 l-7 27 81 0 c65 0 83 -3 88 -16z
m828 -954 c17 -19 18 -45 13 -442 -5 -393 -6 -422 -24 -435 -14 -11 -159 -13
-775 -13 -675 0 -759 2 -773 16 -18 17 -17 -3 -16 528 0 198 5 336 11 347 9
18 39 19 778 19 754 0 768 0 786 -20z m-1803 -343 c-24 -33 -46 -246 -28 -276
6 -9 -49 -21 -101 -21 l-33 0 0 153 c0 85 2 156 4 158 2 2 41 3 86 1 60 -3 79
-7 72 -15z m1808 -597 c0 -10 -9 -24 -19 -30 -27 -14 -1515 -14 -1542 0 -10 6
-19 20 -19 30 0 20 11 20 790 20 779 0 790 0 790 -20z"/>
<path d="M2610 2821 c0 -11 -5 -23 -10 -26 -6 -4 -8 -11 -5 -16 3 -5 -1 -6 -9
-3 -27 11 -17 -10 17 -33 17 -13 26 -23 19 -23 -6 0 -12 -4 -12 -10 0 -13 27
-13 32 0 2 6 17 12 33 14 17 2 28 7 26 12 -13 30 -13 39 -3 55 16 26 16 26
-19 27 -18 0 -37 6 -42 11 -17 17 -27 13 -27 -8z m66 -56 c-3 -8 0 -15 7 -18
6 -2 -5 -4 -25 -5 -41 -2 -56 18 -32 43 12 11 20 12 35 4 12 -6 18 -17 15 -24z"/>
<path d="M3780 1985 l0 -30 85 -1 85 -1 0 28 c0 28 -1 29 -57 30 -32 0 -70 2
-85 3 -25 1 -28 -2 -28 -29z"/>
<path d="M3980 1983 l0 -28 128 0 127 0 3 28 3 27 -130 0 -131 0 0 -27z"/>
<path d="M4260 1986 c0 -31 3 -32 105 -28 82 3 85 4 85 28 0 24 -1 24 -95 24
-94 0 -95 0 -95 -24z"/>
<path d="M4480 1979 c0 -24 3 -30 16 -25 9 3 67 6 130 6 l114 0 -2 25 -2 25
-128 0 -128 0 0 -31z"/>
<path d="M5048 1893 c7 -3 16 -2 19 1 4 3 -2 6 -13 5 -11 0 -14 -3 -6 -6z"/>
<path d="M5196 1860 c-22 -25 -36 -51 -37 -68 0 -15 -8 -63 -18 -107 -13 -59
-20 -74 -25 -59 -3 12 -15 29 -25 38 -18 16 -20 16 -35 -6 -14 -19 -16 -62
-16 -305 l0 -283 240 0 240 0 0 328 c0 318 -1 328 -20 340 -12 7 -18 18 -14
24 5 7 2 9 -9 5 -9 -3 -27 3 -43 15 -26 21 -27 21 -40 3 -8 -10 -14 -25 -14
-33 0 -7 -4 -11 -9 -8 -5 4 -7 -4 -4 -16 8 -33 -14 -6 -113 139 l-22 33 -36
-40z"/>
<path d="M5448 1893 c6 -2 18 -2 25 0 6 3 1 5 -13 5 -14 0 -19 -2 -12 -5z"/>
<path d="M5043 1820 c0 -25 2 -35 4 -22 2 12 2 32 0 45 -2 12 -4 2 -4 -23z"/>
<path d="M3485 638 c-2 -7 -13 -50 -23 -95 -18 -80 -19 -83 -1 -83 18 0 25 15
48 120 14 61 14 70 -4 70 -9 0 -18 -6 -20 -12z"/>
<path d="M3318 602 c-64 -36 -63 -58 2 -94 l50 -28 0 23 c0 16 -9 28 -27 36
-27 12 -27 13 -9 27 10 7 23 15 28 16 6 2 8 13 6 25 -3 22 -3 22 -50 -5z"/>
<path d="M3590 611 c0 -10 12 -28 27 -39 l28 -20 -28 -13 c-19 -8 -27 -20 -27
-37 l0 -24 53 30 c34 19 52 36 52 48 0 13 -18 29 -52 47 -50 27 -53 27 -53 8z"/>
<path d="M6365 2909 c-4 -5 0 -18 9 -28 21 -23 21 -51 0 -51 -9 0 -18 -9 -21
-20 -6 -24 -13 -25 -39 -5 -26 20 -44 19 -44 -3 0 -36 35 -55 86 -48 41 5 45
4 39 -12 -21 -49 -18 -60 36 -118 54 -56 54 -56 102 -50 44 5 48 3 41 -12 -19
-43 6 -112 42 -112 22 0 27 20 10 39 -21 23 -21 51 0 51 9 0 18 9 21 20 6 24
26 26 43 5 15 -18 36 -19 46 -3 11 17 -43 58 -76 58 -16 0 -32 -5 -35 -10 -12
-19 -26 0 -15 20 19 36 10 61 -42 117 -53 55 -53 55 -100 50 -44 -6 -62 3 -38
18 17 10 11 51 -11 79 -21 27 -43 33 -54 15z m174 -194 c40 -44 45 -65 16 -65
-7 0 -17 -9 -20 -20 -9 -28 -19 -25 -65 17 -40 37 -53 73 -26 73 7 0 16 9 19
20 8 31 31 24 76 -25z"/>
<path d="M285 2589 c-4 -6 2 -20 12 -32 11 -12 33 -36 48 -54 15 -18 32 -30
38 -26 6 3 7 2 4 -4 -6 -10 9 -31 85 -120 25 -29 35 -49 31 -60 -4 -11 -8 -13
-11 -5 -6 19 -102 16 -102 -3 0 -9 10 -16 28 -17 15 0 47 -2 72 -4 33 -3 48 1
58 14 13 16 13 16 10 0 -2 -9 2 -18 7 -20 10 -3 30 170 21 179 -3 3 -13 3 -22
-1 -13 -5 -16 -16 -12 -61 5 -63 -4 -66 -45 -15 -16 19 -35 34 -42 34 -7 -1
-12 4 -11 11 1 14 -143 195 -155 195 -4 0 -11 -5 -14 -11z"/>
<path d="M99 2474 c0 -10 -4 -54 -7 -96 -7 -68 -5 -77 10 -81 23 -6 28 1 29
37 2 79 9 76 124 -60 60 -71 112 -133 117 -139 5 -5 14 -3 25 7 15 16 8 27
-100 152 -65 74 -117 138 -117 142 0 3 25 3 55 -1 54 -6 55 -6 55 19 0 24 -4
26 -42 26 -24 0 -67 3 -95 6 -47 6 -53 5 -54 -12z"/>
<path d="M6597 1653 c-33 -75 -97 -247 -97 -260 0 -39 23 3 77 142 38 96 56
155 48 155 -6 0 -19 -17 -28 -37z"/>
<path d="M6357 1573 c-52 -28 -87 -52 -85 -60 5 -21 188 -116 188 -98 0 8 -35
32 -82 56 l-83 42 83 41 c45 22 82 46 82 53 0 19 -7 17 -103 -34z"/>
<path d="M6670 1607 c0 -7 37 -31 82 -53 l83 -41 -83 -42 c-47 -24 -82 -48
-82 -56 0 -18 184 77 188 97 1 7 -37 34 -87 61 -99 52 -101 53 -101 34z"/>
<path d="M372 1498 c-16 -46 -33 -91 -37 -100 -4 -10 -3 -18 2 -18 5 0 23 37
40 83 17 45 34 90 38 100 4 9 3 17 -3 17 -5 0 -23 -37 -40 -82z"/>
<path d="M243 1507 c-35 -17 -63 -34 -63 -38 0 -11 111 -70 123 -66 7 2 -14
17 -45 32 l-57 29 52 29 c59 34 62 36 56 41 -2 2 -32 -10 -66 -27z"/>
<path d="M620 1529 c0 -5 23 -21 52 -35 l52 -27 -58 -29 c-32 -16 -55 -32 -52
-35 9 -9 126 48 126 61 0 6 -27 25 -60 42 -33 17 -60 28 -60 23z"/>
<path d="M440 1405 c0 -8 7 -15 15 -15 8 0 15 7 15 15 0 8 -7 15 -15 15 -8 0
-15 -7 -15 -15z"/>
<path d="M500 1405 c0 -9 5 -15 11 -13 6 2 11 8 11 13 0 5 -5 11 -11 13 -6 2
-11 -4 -11 -13z"/>
<path d="M557 1414 c-8 -8 1 -24 14 -24 5 0 9 7 9 15 0 15 -12 20 -23 9z"/>
<path d="M4469 832 c-28 -24 -31 -79 -4 -98 30 -22 81 -18 99 8 22 32 20 55
-9 83 -29 30 -55 32 -86 7z"/>
<path d="M649 583 c0 -71 -2 -140 -4 -155 -3 -27 -1 -28 36 -28 24 0 38 4 34
10 -3 6 -15 10 -26 10 -18 0 -19 8 -19 135 0 127 1 135 19 135 11 0 23 5 26
10 4 6 -8 10 -29 10 l-36 0 -1 -127z"/>
<path d="M935 700 c3 -5 15 -10 26 -10 18 0 19 -8 19 -135 l0 -135 -25 0 c-14
0 -25 -4 -25 -10 0 -5 16 -10 35 -10 l35 0 0 155 0 155 -36 0 c-21 0 -33 -4
-29 -10z"/>
<path d="M794 660 c-5 -30 -11 -40 -25 -40 -11 0 -19 -4 -19 -10 0 -5 7 -10
15 -10 10 0 15 -10 15 -30 0 -23 -4 -30 -20 -30 -11 0 -20 -4 -20 -10 0 -5 7
-10 16 -10 12 0 15 -9 12 -37 -4 -47 15 -47 22 -1 4 25 11 34 29 36 22 3 23 2
16 -37 -4 -27 -3 -41 4 -41 6 0 14 18 17 40 5 30 11 40 25 40 11 0 19 5 19 10
0 6 -7 10 -15 10 -10 0 -15 10 -15 30 0 23 4 30 20 30 11 0 20 5 20 10 0 6 -7
10 -15 10 -11 0 -15 11 -15 40 0 22 -4 40 -10 40 -5 0 -10 -11 -10 -24 0 -38
-10 -56 -32 -56 -18 0 -19 5 -13 40 4 26 3 40 -4 40 -6 0 -14 -18 -17 -40z
m56 -74 c0 -28 -12 -46 -31 -46 -13 0 -19 7 -19 23 0 13 3 27 7 30 12 13 43 7
43 -7z"/>
<path d="M6250 585 c0 -33 -1 -34 -30 -28 -43 8 -70 -19 -70 -68 0 -46 34 -76
72 -63 13 4 29 7 36 6 9 -2 12 22 12 93 0 57 -4 95 -10 95 -5 0 -10 -16 -10
-35z m-8 -70 c22 -49 -25 -98 -60 -63 -7 7 -12 24 -12 38 0 51 52 69 72 25z"/>
<path d="M5778 537 c-32 -17 -58 -35 -58 -38 0 -10 111 -71 118 -65 7 8 5 10
-53 39 l-49 25 52 26 c29 14 52 31 52 36 0 13 4 14 -62 -23z"/>
<path d="M6450 560 c0 -5 23 -22 52 -36 l52 -26 -49 -25 c-57 -29 -60 -31 -53
-38 7 -7 118 55 118 66 0 5 -27 22 -60 39 -33 17 -60 26 -60 20z"/>
<path d="M5902 543 c-35 -30 -38 -68 -8 -97 26 -27 60 -34 71 -16 3 6 -4 10
-17 10 -31 0 -48 18 -48 50 0 32 17 50 47 50 13 0 23 5 23 10 0 16 -46 11 -68
-7z"/>
<path d="M6016 541 c-27 -30 -18 -91 17 -111 24 -13 30 -13 55 0 56 32 35 130
-28 130 -15 0 -35 -9 -44 -19z m73 -15 c31 -37 -9 -103 -46 -80 -21 13 -27 36
-19 70 7 28 46 33 65 10z"/>
<path d="M6329 550 c-23 -14 -32 -58 -19 -91 13 -31 58 -47 87 -30 15 9 13 10
-14 11 -33 0 -67 25 -58 41 4 5 26 9 51 9 48 0 55 11 28 48 -16 23 -48 28 -75
12z m60 -23 c14 -18 4 -27 -29 -27 -33 0 -43 9 -29 27 15 17 43 17 58 0z"/>
</g>
</svg>
